<?xml version="1.0" encoding="UTF-8" standalone="no"?>
<!-- Created with Inkscape (http://www.inkscape.org/) -->

<svg
   xmlns:dc="http://purl.org/dc/elements/1.1/"
   xmlns:cc="http://creativecommons.org/ns#"
   xmlns:rdf="http://www.w3.org/1999/02/22-rdf-syntax-ns#"
   xmlns:svg="http://www.w3.org/2000/svg"
   xmlns="http://www.w3.org/2000/svg"
   xmlns:sodipodi="http://sodipodi.sourceforge.net/DTD/sodipodi-0.dtd"
   xmlns:inkscape="http://www.inkscape.org/namespaces/inkscape"
   width="32"
   height="32"
   id="svg2987"
   version="1.1"
   inkscape:version="0.48.2 r9819"
   sodipodi:docname="logo.svg"
   inkscape:export-filename="/Users/marcu/Sites/WombatGIS/img/logo.png"
   inkscape:export-xdpi="90"
   inkscape:export-ydpi="90">
  <defs
     id="defs2989" />
  <sodipodi:namedview
     inkscape:document-units="mm"
     pagecolor="#ffffff"
     bordercolor="#666666"
     borderopacity="1.0"
     inkscape:pageopacity="0.0"
     inkscape:pageshadow="2"
     inkscape:zoom="3.736361"
     inkscape:cx="51.655247"
     inkscape:cy="15.190496"
     inkscape:current-layer="layer1"
     id="namedview2991"
     showgrid="false"
     units="px"
     fit-margin-top="10"
     fit-margin-left="0"
     fit-margin-right="0"
     fit-margin-bottom="0"
     inkscape:window-width="1112"
     inkscape:window-height="663"
     inkscape:window-x="94"
     inkscape:window-y="40"
     inkscape:window-maximized="0" />
  <metadata
     id="metadata2993">
    <rdf:RDF>
      <cc:Work
         rdf:about="">
        <dc:format>image/svg+xml</dc:format>
        <dc:type
           rdf:resource="http://purl.org/dc/dcmitype/StillImage" />
        <dc:title></dc:title>
      </cc:Work>
    </rdf:RDF>
  </metadata>
  <g
     inkscape:label="Layer 1"
     inkscape:groupmode="layer"
     id="layer1"
     transform="translate(-435.22835,-539.83601)">
    <g
       id="g2987"
       transform="matrix(0.08663935,0,0,0.08663935,397.98268,521.63333)">
      <path
         sodipodi:nodetypes="ccccccc"
         inkscape:connector-curvature="0"
         id="path2996"
         d="m 771,430.09448 c -27.94228,-33.04864 -66.17132,-79.17132 -74,-181 -45.40973,68.4227 -143.623,67.4539 -192,14 -0.85386,107.43546 -9.86101,146.25985 -36,208 34.40481,31.15265 69.40431,51.56873 107,50 22.60897,40.60898 91.65334,31.85898 102,-13 31.99591,-3.21953 69.23359,-20.72533 93,-78 z"
         style="fill:#bc5fd3;stroke:#333333;stroke-width:6.02362204;stroke-linecap:butt;stroke-linejoin:miter;stroke-miterlimit:4;stroke-opacity:1;stroke-dasharray:none" />
      <path
         sodipodi:nodetypes="sssss"
         inkscape:connector-curvature="0"
         id="path3010"
         d="m 671.75898,384.44754 c -0.52059,-8.57973 -4.72529,-11.76298 -12.52518,-12.0268 -7.56261,-0.2558 -11.54836,5.21518 -11.47482,12.0268 0.10591,9.80968 6.7191,16.10757 14.48068,13.79452 5.19678,-1.54871 9.94999,-6.69668 9.51932,-13.79452 z"
         style="fill:#333333;stroke:#333333;stroke-width:1px;stroke-linecap:butt;stroke-linejoin:miter;stroke-opacity:1" />
      <path
         sodipodi:nodetypes="sssss"
         inkscape:connector-curvature="0"
         id="path3014"
         d="m 567.22376,395.03807 c -1.03899,-7.32115 -7.71768,-11.04847 -15.39613,-10.40742 -7.89515,0.65914 -9.60342,7.20818 -10.08161,14.97419 -0.23055,3.74433 4.34624,12.39484 11.97774,12.53323 7.2934,0.13227 14.80488,-7.90523 13.5,-17.1 z"
         style="fill:#333333;stroke:#333333;stroke-width:0.89999998px;stroke-linecap:butt;stroke-linejoin:miter;stroke-opacity:1" />
      <path
         sodipodi:nodetypes="cccsc"
         inkscape:connector-curvature="0"
         id="path3020"
         d="m 664.46096,453.29702 c -15.22202,-15.30814 -29.55563,-22.55389 -52.63054,-23.43501 -13.61999,6.27228 -32.32971,19.76454 -37.7822,32.56952 6.99548,10.44791 34.39406,15.77652 47.23353,14.68835 10.30366,-0.87326 35.08684,-13.22091 43.17921,-23.82286 z"
         style="fill:#333333;stroke:#333333;stroke-width:1px;stroke-linecap:butt;stroke-linejoin:miter;stroke-opacity:1" />
      <path
         sodipodi:nodetypes="csccc"
         inkscape:connector-curvature="0"
         id="path3024"
         d="m 649.96117,475.45642 c -9.2316,10.57521 -19.31154,12.48246 -25.80486,13.80838 -9.46387,1.93249 -24.06426,-2.3258 -29.85077,-4.81111 7.34692,10.50701 22.83844,18.8525 33.60831,18.07992 8.5723,-0.84598 22.71253,-20.86417 22.04732,-27.07719 z"
         style="fill:#333333;stroke:#333333;stroke-width:1.02391231px;stroke-linecap:butt;stroke-linejoin:miter;stroke-opacity:1" />
    </g>
  </g>
</svg>
